<svg xmlns="http://www.w3.org/2000/svg" width="48" height="48" viewBox="0 0 48 48">
    <g fill="none" fill-rule="evenodd">
        <g>
            <g>
                <g>
                    <path fill="#FFF" d="M14 0h20c7.732 0 14 6.268 14 14v20c0 7.732-6.268 14-14 14H14C6.268 48 0 41.732 0 34V14C0 6.268 6.268 0 14 0z" transform="translate(-690 -3577) translate(60 3380) translate(630 197)"/>
                    <path fill="#737373" d="M36 8L36 10 12 10 12 8z" transform="translate(-690 -3577) translate(60 3380) translate(630 197) rotate(180 24 9)"/>
                    <path fill="#737373" d="M36 12L36 14 12 14 12 12z" transform="translate(-690 -3577) translate(60 3380) translate(630 197) rotate(180 24 13)"/>
                    <path fill="#737373" d="M36 16L36 18 12 18 12 16z" transform="translate(-690 -3577) translate(60 3380) translate(630 197) rotate(180 24 17)"/>
                    <path fill="#774417" d="M30 20L30 23 29 23 29 20z" transform="translate(-690 -3577) translate(60 3380) translate(630 197) rotate(180 29.5 21.5)"/>
                    <path fill="#737373" d="M27 20L27 22 12 22 12 20z" transform="translate(-690 -3577) translate(60 3380) translate(630 197) rotate(180 19.5 21)"/>
                    <path fill="#774417" d="M31 24L31 27 28 27 28 24z" transform="translate(-690 -3577) translate(60 3380) translate(630 197) rotate(180 29.5 25.5)"/>
                    <path fill="#774417" d="M34 28L34 38 32 44 27 44 25 38 25 28z" transform="translate(-690 -3577) translate(60 3380) translate(630 197) rotate(180 29.5 36)"/>
                </g>
            </g>
        </g>
    </g>
</svg>
