<svg xmlns="http://www.w3.org/2000/svg" width="24" height="24" viewBox="0 0 24 24">
    <g fill="none" fill-rule="evenodd">
        <path stroke="#FFF" d="M14.5 19.5H17a1.5 1.5 0 0 0 1.5-1.5V4l-.5.5h1l-.5-.5v14a1.5 1.5 0 0 1-1.5 1.5h-2.5zm0 0H12a1.5 1.5 0 0 1-1.5-1.5v-4l-.5.5h1l-.5-.5v4a1.5 1.5 0 0 0 1.5 1.5h2.5z" opacity=".5"/>
        <path fill="#FFF" d="M17.828 16.414l2.122-2.121a1 1 0 1 1 1.414 1.414l-2.121 2.121 2.121 2.122a1 1 0 1 1-1.414 1.414l-2.122-2.121-2.12 2.121a1 1 0 0 1-1.415-1.414l2.121-2.122-2.121-2.12a1 1 0 0 1 1.414-1.415l2.121 2.121zM13 14v1H5V4h11v9h-1v-3h-3v2H9v-2H6v4h7zm-2-9v2h-1V5H9v2H8V5H6v4h9V5h-2v2h-1V5h-1zm0 4h-1v2h1V9z"/>
    </g>
</svg>
