<svg xmlns="http://www.w3.org/2000/svg" width="48" height="48" viewBox="0 0 48 48">
    <defs>
        <linearGradient id="w1bhhyd5fa" x1="0%" x2="101.766%" y1="0%" y2="100.769%">
            <stop offset="0%" stop-color="#09BAB8"/>
            <stop offset="99.954%" stop-color="#7A47C2"/>
        </linearGradient>
    </defs>
    <g fill="none" fill-rule="evenodd">
        <g>
            <g>
                <g fill="url(#w1bhhyd5fa)" transform="translate(-690 -1176) translate(690 1176)">
                    <path d="M16 0h16c8.837 0 16 7.163 16 16v16c0 8.837-7.163 16-16 16H16C7.163 48 0 40.837 0 32V16C0 7.163 7.163 0 16 0z"/>
                </g>
                <g fill="#FFF">
                    <path d="M24 34v2H0v-2h24zm0-4v2H0v-2h24zm0-4v2H0v-2h24zM7 21v3H6v-3h1zm17 1v2H9v-2h15zM8 17v3H5v-3h3zm3-17v10l-2 6H4l-2-6V0h9z" transform="translate(-690 -1176) translate(690 1176) rotate(180 18 22)"/>
                </g>
            </g>
        </g>
    </g>
</svg>
